# File created by Blade
# Date/Time:  Tue Sep 30 19:10:05 2014
#---------------------------------------------------------
:version 1.10
:name HOM
:units
  mass 1.0
  length 1.000000
  angle deg
:documentation
     Acclaim Skeleton File
:root
   axis xyz
   order TX TY TZ RX RY RZ
   position 0.000000 0.000000 0.000000
   orientation 0 0 0
:bonedata
   begin
      id 1
      name Spine_dum
      direction 0.000000 1.000000 0.000000
      length 7.508948
      axis 0.0 0.0 0.0 xyz
   end
   begin
      id 2
      name LeftUpLeg_dum
      direction 1.000000 0.000000 0.000000
      length 3.000560
      axis 0.0 0.0 0.0 xyz
   end
   begin
      id 3
      name RightUpLeg_dum
      direction -1.000000 0.000000 0.000000
      length 3.000560
      axis 0.0 0.0 0.0 xyz
   end
   begin
      id 4
      name Spine
      direction 0.000000 1.000000 0.000000
      length 0.000000
      axis 0.0 0.0 0.0 xyz
      dof rx ry rz
   end
   begin
      id 5
      name Spine_dum1
      direction 0.000000 1.000000 0.000000
      length 13.861154
      axis 0.0 0.0 0.0 xyz
   end
   begin
      id 6
      name Spine_dum2
      direction 0.000000 1.000000 0.000000
      length 8.204781
      axis 0.0 0.0 0.0 xyz
   end
   begin
      id 7
      name Spine_dum3
      direction 0.000000 1.000000 0.000000
      length 8.204781
      axis 0.0 0.0 0.0 xyz
   end
   begin
      id 8
      name Head
      direction 0.000000 1.000000 0.000000
      length 4.527550
      axis 0.0 0.0 0.0 xyz
      dof rx ry rz
   end
   begin
      id 9
      name LeftShoulder
      direction 1.000000 0.000000 0.000000
      length 6.635956
      axis 0.0 0.0 -90.0 xyz
      dof rx ry rz
   end
   begin
      id 10
      name LeftArm
      direction 1.000000 0.000000 0.000000
      length 10.274218
      axis 0.0 0.0 -90.0 xyz
      dof rx ry rz
   end
   begin
      id 11
      name LeftForeArm
      direction 1.000000 0.000000 0.000000
      length 8.522147
      axis 0.0 0.0 -90.0 xyz
      dof ry rz rx
   end
   begin
      id 12
      name LeftHand
      direction 0.000000 0.000000 0.000000
      length 0.000000
      axis 0.0 0.0 -90.0 xyz
      dof rx ry rz
   end
   begin
      id 13
      name LeftHand_dum1
      direction 0.000000 0.000000 0.000000
      length 0.000000
      axis 0.0 0.0 -90.0 xyz
   end
   begin
      id 14
      name LeftHand_dum2
      direction 1.000000 0.000000 0.000000
      length 3.937000
      axis 0.0 0.0 -90.0 xyz
   end
   begin
      id 15
      name LeftHandThumb1
      direction 0.000000 0.000000 1.000000
      length 3.937000
      axis 0.0 0.0 -90.0 xyz
      dof rx rz ry
   end
   begin
      id 16
      name RightShoulder
      direction -1.000000 0.000000 0.000000
      length 6.635956
      axis 0.0 0.0 90.0 xyz
      dof rx ry rz
   end
   begin
      id 17
      name RightArm
      direction -1.000000 0.000000 0.000000
      length 10.274218
      axis 0.0 0.0 90.0 xyz
      dof rx ry rz
   end
   begin
      id 18
      name RightForeArm
      direction -1.000000 0.000000 0.000000
      length 8.522147
      axis 0.0 0.0 90.0 xyz
      dof ry rz rx
   end
   begin
      id 19
      name RightHand
      direction 0.000000 0.000000 0.000000
      length 0.000000
      axis 0.0 0.0 90.0 xyz
      dof rx ry rz
   end
   begin
      id 20
      name RightHand_dum1
      direction 0.000000 0.000000 0.000000
      length 0.000000
      axis 0.0 0.0 90.0 xyz
   end
   begin
      id 21
      name RightHand_dum2
      direction -1.000000 0.000000 0.000000
      length 3.937000
      axis 0.0 0.0 90.0 xyz
   end
   begin
      id 22
      name RightHandThumb1
      direction 0.000000 0.000000 1.000000
      length 3.937000
      axis 0.0 0.0 90.0 xyz
      dof rx rz ry
   end
   begin
      id 23
      name LeftUpLeg
      direction 0.000000 -1.000000 0.000000
      length 16.490845
      axis 0.0 0.0 0.0 xyz
      dof rx ry rz
   end
   begin
      id 24
      name LeftLeg
      direction 0.000000 -1.000000 0.000000
      length 14.556576
      axis 0.0 0.0 0.0 xyz
      dof rx ry rz
   end
   begin
      id 25
      name LeftFoot
      direction 0.000000 -0.258819 0.965926
      length 4.831116
      axis 15.0 0.0 0.0 xyz
      dof rx ry rz
   end
   begin
      id 26
      name LeftToeBase
      direction 0.000000 0.000000 1.000000
      length 2.952750
      axis 0.0 0.0 0.0 xyz
      dof rx ry rz
   end
   begin
      id 27
      name RightUpLeg
      direction 0.000000 -1.000000 0.000000
      length 16.490845
      axis 0.0 0.0 0.0 xyz
      dof rx ry rz
   end
   begin
      id 28
      name RightLeg
      direction 0.000000 -1.000000 0.000000
      length 14.556576
      axis 0.0 0.0 0.0 xyz
      dof rx ry rz
   end
   begin
      id 29
      name RightFoot
      direction 0.000000 -0.258819 0.965926
      length 4.831116
      axis 15.0 0.0 0.0 xyz
      dof rx ry rz
   end
   begin
      id 30
      name RightToeBase
      direction 0.000000 0.000000 1.000000
      length 2.952750
      axis 0.0 0.0 0.0 xyz
      dof rx ry rz
   end
:hierarchy
   begin
      root Spine_dum LeftUpLeg_dum RightUpLeg_dum
      Spine_dum Spine
      LeftUpLeg_dum LeftUpLeg
      RightUpLeg_dum RightUpLeg
      Spine Spine_dum1 Spine_dum2 Spine_dum3
      Spine_dum1 Head
      Spine_dum2 LeftShoulder
      Spine_dum3 RightShoulder
      LeftShoulder LeftArm
      LeftArm LeftForeArm
      LeftForeArm LeftHand
      LeftHand LeftHand_dum1 LeftHand_dum2
      LeftHand_dum1 LeftHandThumb1
      RightShoulder RightArm
      RightArm RightForeArm
      RightForeArm RightHand
      RightHand RightHand_dum1 RightHand_dum2
      RightHand_dum1 RightHandThumb1
      LeftUpLeg LeftLeg
      LeftLeg LeftFoot
      LeftFoot LeftToeBase
      RightUpLeg RightLeg
      RightLeg RightFoot
      RightFoot RightToeBase
   end

# File created by Blade
# Date/Time:  Wed Sep 24 20:15:16 2014
# Frame Rate: 120.000 fps
#------------------------------------------------------
:FULLY-SPECIFIED
:DEGREES
1
root -6.157955 32.839408 -4.823641 15.194122 3.738897 -1.295911
Spine -15.480729 5.059095 -0.540874
Head -14.254678 -7.603874 12.992337
LeftShoulder -15.206498 17.645753 26.593016
LeftArm 15.031963 -23.155111 -26.072012
LeftForeArm 14.667162 -0.000000 13.963065
LeftHand -25.270922 -0.000000 -12.219601
LeftHandThumb1 -26.253704 0.000000 33.147579
RightShoulder -22.406279 12.302406 -37.224955
RightArm -9.652049 10.590249 28.450539
RightForeArm -30.916399 -0.000000 15.454602
RightHand -12.237759 -0.000000 13.340620
RightHandThumb1 -24.326973 -0.000000 -32.862282
LeftUpLeg -11.420167 5.916228 4.136818
LeftLeg -0.368159 -0.000000 0.000000
LeftFoot -10.744454 7.013797 -18.243944
LeftToeBase 9.702980 -0.000000 -0.000000
RightUpLeg -11.944898 -6.743322 -1.361380
RightLeg 2.841572 -0.000000 -0.000000
RightFoot -8.375040 -3.365821 -13.019225
RightToeBase -0.385935 -0.000000 0.000000
2
root -6.157909 32.839214 -4.822407 15.193623 3.741687 -1.295749
Spine -15.488979 5.072369 -0.544199
Head -14.249659 -7.612298 12.988274
LeftShoulder -15.202343 17.655352 26.592527
LeftArm 15.060717 -23.160559 -26.089948
LeftForeArm 14.644219 0.000000 13.921028
LeftHand -25.179115 -0.000000 -12.213598
LeftHandThumb1 -26.253704 0.000000 33.147579
RightShoulder -22.416588 12.306487 -37.219337
RightArm -9.635083 10.571587 28.445884
RightForeArm -30.924445 -0.000000 15.427109
RightHand -12.252169 -0.000000 13.324531
RightHandThumb1 -24.326973 -0.000000 -32.862282
LeftUpLeg -11.413613 5.895483 4.141010
LeftLeg -0.374707 -0.000000 0.000000
LeftFoot -10.741345 7.039108 -18.241299
LeftToeBase 9.690404 -0.000000 -0.000000
RightUpLeg -11.940600 -6.744264 -1.362707
RightLeg 2.840378 -0.000000 -0.000000
RightFoot -8.383847 -3.365299 -13.030912
RightToeBase -0.367046 -0.000000 0.000000
3
root -6.157866 32.838893 -4.820744 15.192334 3.741122 -1.298549
Spine -15.499614 5.079349 -0.542706
Head -14.231810 -7.625620 12.980454
LeftShoulder -15.192438 17.639811 26.591832
LeftArm 15.049426 -23.161454 -26.092236
LeftForeArm 14.645315 -0.000000 13.923688
LeftHand -25.159229 0.000000 -12.221526
LeftHandThumb1 -26.253704 0.000000 33.147579
RightShoulder -22.401298 12.312110 -37.210927
RightArm -9.633209 10.562579 28.437665
RightForeArm -30.920645 -0.000000 15.397508
RightHand -12.275251 -0.000000 13.315266
RightHandThumb1 -24.326973 -0.000000 -32.862282
LeftUpLeg -11.410148 5.905091 4.143309
LeftLeg -0.372561 -0.000000 0.000000
LeftFoot -10.751229 7.020109 -18.255446
LeftToeBase 9.711175 -0.000000 -0.000000
RightUpLeg -11.935912 -6.740423 -1.360626
RightLeg 2.839202 -0.000000 -0.000000
RightFoot -8.378917 -3.368095 -13.006307
RightToeBase -0.381815 -0.000000 0.000000
4
root -6.157308 32.838776 -4.820053 15.190690 3.749024 -1.295685
Spine -15.508547 5.076963 -0.546535
Head -14.216275 -7.640937 12.977835
LeftShoulder -15.182365 17.636905 26.591040
LeftArm 15.053728 -23.162325 -26.103156
LeftForeArm 14.571375 -0.000000 13.901345
LeftHand -25.017318 -0.000000 -12.127106
LeftHandThumb1 -26.253704 0.000000 33.147579
RightShoulder -22.390271 12.320547 -37.186316
RightArm -9.627878 10.522197 28.418314
RightForeArm -30.887174 -0.000000 15.376767
RightHand -12.261221 -0.000000 13.278545
RightHandThumb1 -24.326973 -0.000000 -32.862282
LeftUpLeg -11.407937 5.897712 4.142310
LeftLeg -0.374662 -0.000000 0.000000
LeftFoot -10.739212 6.994554 -18.311002
LeftToeBase 9.622676 -0.000000 -0.000000
RightUpLeg -11.934263 -6.754175 -1.359751
RightLeg 2.842066 -0.000000 -0.000000
RightFoot -8.380153 -3.377262 -13.028695
RightToeBase -0.386135 -0.000000 0.000000
5
root -6.157040 32.838810 -4.819301 15.193379 3.749023 -1.293238
Spine -15.528272 5.071478 -0.549242
Head -14.183043 -7.643305 12.974946
LeftShoulder -15.166673 17.643560 26.585140
LeftArm 15.031824 -23.195246 -26.109349
LeftForeArm 14.612189 0.000000 13.918385
LeftHand -24.999069 0.000000 -12.129158
LeftHandThumb1 -26.253704 0.000000 33.147579
RightShoulder -22.359208 12.327144 -37.162344
RightArm -9.627779 10.531637 28.398956
RightForeArm -30.894387 -0.000000 15.363529
RightHand -12.249306 -0.000000 13.302592
RightHandThumb1 -24.326973 -0.000000 -32.862282
LeftUpLeg -11.409196 5.900339 4.137639
LeftLeg -0.373707 -0.000000 0.000000
LeftFoot -10.739415 6.998591 -18.258311
LeftToeBase 9.687378 -0.000000 -0.000000
RightUpLeg -11.931187 -6.745435 -1.365763
RightLeg 2.835351 -0.000000 -0.000000
RightFoot -8.380308 -3.369823 -12.976866
RightToeBase -0.407129 -0.000000 0.000000
6
root -6.156812 32.838638 -4.818043 15.192078 3.756306 -1.295348
Spine -15.538553 5.074437 -0.551090
Head -14.174081 -7.662061 12.980321
LeftShoulder -15.160494 17.633514 26.584144
LeftArm 15.036051 -23.182593 -26.118338
LeftForeArm 14.605252 -0.000000 13.965024
LeftHand -25.221259 -0.000000 -12.113906
LeftHandThumb1 -26.253704 0.000000 33.147579
RightShoulder -22.351239 12.333528 -37.146299
RightArm -9.629682 10.519800 28.397805
RightForeArm -30.861585 -0.000000 15.378202
RightHand -12.399208 -0.000000 13.098668
RightHandThumb1 -24.326973 -0.000000 -32.862282
LeftUpLeg -11.404505 5.885715 4.142204
LeftLeg -0.375934 -0.000000 0.000000
LeftFoot -10.714485 7.013448 -18.145679
LeftToeBase 9.577250 -0.000000 -0.000000
RightUpLeg -11.922713 -6.742543 -1.364765
RightLeg 2.828342 -0.000000 -0.000000
RightFoot -8.383296 -3.376825 -12.986293
RightToeBase -0.378745 -0.000000 0.000000
